<svg width="187" height="68" viewBox="0 0 187 68" fill="none" xmlns="http://www.w3.org/2000/svg">
<g opacity="0.89" filter="url(#filter0_d_1_4)">
<path d="M44.9751 22.0722C45.2034 21.6973 45.5403 21.4007 45.9411 21.2219C46.342 21.043 46.7877 20.9903 47.2192 21.0708L64.0143 24.6407C64.2471 24.6845 64.4675 24.7786 64.6601 24.9166C64.8527 25.0546 65.0127 25.233 65.1291 25.4394C65.2454 25.6458 65.3151 25.8751 65.3335 26.1113C65.3518 26.3475 65.3182 26.5848 65.2351 26.8067L54.7583 57.7411C54.5851 58.2233 54.2459 58.6281 53.8014 58.883C53.3569 59.1379 52.8362 59.2261 52.3326 59.132L10.2123 50.1791C9.97935 50.1356 9.75874 50.0416 9.566 49.9036C9.37326 49.7657 9.21307 49.5873 9.0967 49.3808C8.98034 49.1744 8.91062 48.9449 8.89244 48.7086C8.87427 48.4723 8.90809 48.2349 8.99152 48.0131L17.9129 21.6807C18.0861 21.1985 18.4253 20.7937 18.8698 20.5388C19.3143 20.284 19.835 20.1957 20.3387 20.2898L39.7405 24.4138C41.7172 24.834 43.8905 23.8643 44.9751 22.0722Z" fill="#5E60CE"/>
<path opacity="0.1" d="M44.9751 22.0722C45.2034 21.6973 45.5403 21.4007 45.9411 21.2219C46.342 21.043 46.7877 20.9903 47.2192 21.0708L64.0143 24.6407C64.2471 24.6845 64.4675 24.7786 64.6601 24.9166C64.8527 25.0546 65.0127 25.233 65.1291 25.4394C65.2454 25.6458 65.3151 25.8751 65.3335 26.1113C65.3518 26.3475 65.3182 26.5848 65.2351 26.8067L54.7583 57.7411C54.5852 58.2233 54.2459 58.6281 53.8014 58.883C53.357 59.1379 52.8362 59.2261 52.3326 59.132L10.2123 50.1791C9.97935 50.1356 9.75874 50.0416 9.566 49.9036C9.37326 49.7657 9.21307 49.5873 9.0967 49.3808C8.98034 49.1744 8.91062 48.9449 8.89244 48.7086C8.87427 48.4723 8.90809 48.2349 8.99152 48.0131L17.9129 21.6807C18.0861 21.1985 18.4253 20.7937 18.8698 20.5388C19.3143 20.284 19.835 20.1957 20.3387 20.2898L39.7405 24.4138C41.7172 24.834 43.8905 23.8643 44.9751 22.0722Z" fill="#FAFAFA"/>
<path d="M31.1043 5.612L8.74436 15.0526C7.72677 15.4822 7.25015 16.6555 7.67978 17.673L16.5322 38.6398C16.9618 39.6574 18.135 40.1341 19.1526 39.7044L41.5126 30.2638C42.5302 29.8342 43.0068 28.661 42.5772 27.6434L33.7247 6.67658C33.2951 5.65899 32.1219 5.18236 31.1043 5.612Z" fill="#5E60CE"/>
<path opacity="0.8" d="M31.1043 5.612L8.74436 15.0526C7.72677 15.4822 7.25015 16.6555 7.67978 17.673L16.5322 38.6398C16.9618 39.6574 18.135 40.1341 19.1526 39.7044L41.5126 30.2638C42.5302 29.8342 43.0068 28.661 42.5772 27.6434L33.7247 6.67658C33.2951 5.65899 32.1219 5.18236 31.1043 5.612Z" fill="#FAFAFA"/>
<path d="M30.9738 5.93313L8.61387 15.3737C7.59628 15.8034 7.11965 16.9766 7.54929 17.9942L16.4017 38.961C16.8313 39.9786 18.0045 40.4552 19.0221 40.0256L41.3821 30.5849C42.3997 30.1553 42.8763 28.9821 42.4467 27.9645L33.5943 6.99771C33.1646 5.98012 31.9914 5.50349 30.9738 5.93313Z" fill="#FAFAFA"/>
<path d="M29.9105 8.66236L11.3083 16.5164C10.2907 16.9461 9.81405 18.1193 10.2437 19.1368L15.857 32.432C16.2867 33.4496 17.4599 33.9262 18.4775 33.4966L37.0797 25.6425C38.0973 25.2129 38.5739 24.0397 38.1443 23.0221L32.5309 9.72694C32.1013 8.70935 30.9281 8.23273 29.9105 8.66236Z" fill="#5E60CE"/>
<path opacity="0.8" d="M29.9105 8.66236L11.3083 16.5164C10.2907 16.9461 9.81405 18.1193 10.2437 19.1368L15.857 32.432C16.2867 33.4496 17.4599 33.9262 18.4775 33.4966L37.0797 25.6425C38.0973 25.2129 38.5739 24.0397 38.1443 23.0221L32.5309 9.72694C32.1013 8.70935 30.9281 8.23273 29.9105 8.66236Z" fill="#FAFAFA"/>
<path d="M21.616 19.0344C21.8769 19.6526 21.9485 20.3343 21.8218 20.9933C21.695 21.6522 21.3756 22.2587 20.904 22.736C20.4324 23.2133 19.8297 23.5399 19.1724 23.6745C18.515 23.8091 17.8325 23.7457 17.2112 23.4922C16.59 23.2387 16.0579 22.8066 15.6823 22.2505C15.3068 21.6945 15.1046 21.0395 15.1015 20.3685C15.0984 19.6975 15.2945 19.0407 15.6649 18.4812C16.0353 17.9217 16.5633 17.4846 17.1822 17.2254C18.0102 16.8786 18.9419 16.8743 19.7731 17.2134C20.6042 17.5525 21.267 18.2074 21.616 19.0344Z" fill="#5E60CE"/>
<path opacity="0.1" d="M21.616 19.0344C21.8769 19.6526 21.9485 20.3343 21.8218 20.9933C21.695 21.6522 21.3756 22.2587 20.904 22.736C20.4324 23.2133 19.8297 23.5399 19.1724 23.6745C18.515 23.8091 17.8325 23.7457 17.2112 23.4922C16.59 23.2387 16.0579 22.8066 15.6823 22.2505C15.3068 21.6945 15.1046 21.0395 15.1015 20.3685C15.0984 19.6975 15.2945 19.0407 15.6649 18.4812C16.0353 17.9217 16.5633 17.4846 17.1822 17.2254C18.0102 16.8786 18.9419 16.8743 19.7731 17.2134C20.6042 17.5525 21.267 18.2074 21.616 19.0344Z" fill="#FAFAFA"/>
<path d="M34.3072 20.205C33.9134 19.601 33.3914 19.091 32.7785 18.7112C32.1979 18.3515 31.5492 18.1169 30.8737 18.0219C30.8035 18.0121 30.7477 17.9656 30.7207 17.9001V17.9001C30.2765 16.8311 29.4694 15.953 28.4414 15.4206C27.4135 14.8882 26.2306 14.7357 25.1012 14.9898C23.9717 15.2439 22.9682 15.8885 22.2674 16.8099C21.666 17.6004 21.3206 18.5513 21.2704 19.5358C21.2559 19.82 21.0659 20.0684 20.8029 20.177V20.177C20.2602 20.4053 19.7984 20.7911 19.4772 21.2845C19.4727 21.2914 19.4683 21.2984 19.4638 21.3053C18.9294 22.1418 18.213 23.021 17.4436 23.6481C17.3561 23.7195 17.2719 23.7954 17.1916 23.8759C16.6909 24.3621 16.3433 24.9841 16.1914 25.6652C16.0395 26.3464 16.0901 27.0571 16.3367 27.71C16.5097 28.1456 16.7679 28.5422 17.0962 28.8767C17.4245 29.2111 17.8163 29.4766 18.2486 29.6576C18.6808 29.8386 19.1449 29.9315 19.6136 29.9307C20.0822 29.93 20.546 29.8356 20.9777 29.6532L27.3851 26.9473L33.2554 24.4687C33.9064 24.2012 34.4258 23.6882 34.7013 23.0406C34.9768 22.393 34.9862 21.6629 34.7275 21.0084L34.7175 20.982C34.6045 20.7112 34.4672 20.4511 34.3072 20.205Z" fill="#5E60CE"/>
<path opacity="0.3" d="M34.3072 20.205C33.9134 19.601 33.3914 19.091 32.7785 18.7112C32.1979 18.3515 31.5492 18.1169 30.8737 18.0219C30.8035 18.0121 30.7477 17.9656 30.7207 17.9001V17.9001C30.2765 16.8311 29.4694 15.953 28.4414 15.4206C27.4135 14.8882 26.2306 14.7357 25.1012 14.9898C23.9717 15.2439 22.9682 15.8885 22.2674 16.8099C21.666 17.6004 21.3206 18.5513 21.2704 19.5358C21.2559 19.82 21.0659 20.0684 20.8029 20.177V20.177C20.2602 20.4053 19.7984 20.7911 19.4772 21.2845C19.4727 21.2914 19.4683 21.2984 19.4638 21.3053C18.9294 22.1418 18.213 23.021 17.4436 23.6481C17.3561 23.7195 17.2719 23.7954 17.1916 23.8759C16.6909 24.3621 16.3433 24.9841 16.1914 25.6652C16.0395 26.3464 16.0901 27.0571 16.3367 27.71C16.5097 28.1456 16.7679 28.5422 17.0962 28.8767C17.4245 29.2111 17.8163 29.4766 18.2486 29.6576C18.6808 29.8386 19.1449 29.9315 19.6136 29.9307C20.0822 29.93 20.546 29.8356 20.9777 29.6532L27.3851 26.9473L33.2554 24.4687C33.9064 24.2012 34.4258 23.6882 34.7013 23.0406C34.9768 22.393 34.9862 21.6629 34.7275 21.0084L34.7175 20.982C34.6045 20.7112 34.4672 20.4511 34.3072 20.205Z" fill="black"/>
<g style="mix-blend-mode:multiply">
<path d="M30.9898 9.47976L8.3019 18.1026C7.26939 18.495 6.75049 19.6502 7.14291 20.6827L15.2285 41.957C15.6209 42.9895 16.7761 43.5084 17.8086 43.1159L40.4964 34.4931C41.5289 34.1007 42.0478 32.9455 41.6554 31.913L33.5698 10.6387C33.1774 9.60623 32.0223 9.08734 30.9898 9.47976Z" fill="#5E60CE"/>
</g>
<path opacity="0.8" d="M30.9898 9.47976L8.3019 18.1026C7.26939 18.495 6.75049 19.6502 7.14291 20.6827L15.2285 41.957C15.6209 42.9895 16.7761 43.5084 17.8086 43.1159L40.4964 34.4931C41.5289 34.1007 42.0478 32.9455 41.6554 31.913L33.5698 10.6387C33.1774 9.60623 32.0223 9.08734 30.9898 9.47976Z" fill="#FAFAFA"/>
<path d="M30.8491 9.79867L8.16121 18.4215C7.1287 18.8139 6.60981 19.9691 7.00223 21.0016L15.0878 42.2759C15.4802 43.3084 16.6354 43.8273 17.6679 43.4349L40.3558 34.812C41.3883 34.4196 41.9072 33.2645 41.5147 32.2319L33.4291 10.9577C33.0367 9.92514 31.8816 9.40625 30.8491 9.79867Z" fill="#FAFAFA"/>
<path d="M29.6881 12.4882L10.8131 19.6619C9.78062 20.0543 9.26172 21.2094 9.65414 22.2419L14.7812 35.732C15.1737 36.7646 16.3288 37.2834 17.3613 36.891L36.2363 29.7173C37.2688 29.3249 37.7877 28.1698 37.3953 27.1372L32.2682 13.6471C31.8758 12.6146 30.7207 12.0957 29.6881 12.4882Z" fill="#5E60CE"/>
<path opacity="0.8" d="M29.6881 12.4882L10.8131 19.6619C9.78062 20.0543 9.26172 21.2094 9.65414 22.2419L14.7812 35.732C15.1737 36.7646 16.3288 37.2834 17.3613 36.891L36.2363 29.7173C37.2688 29.3249 37.7877 28.1698 37.3953 27.1372L32.2682 13.6471C31.8758 12.6146 30.7207 12.0957 29.6881 12.4882Z" fill="#FAFAFA"/>
<path d="M20.9438 25.1345C21.7057 23.428 20.94 21.427 19.2335 20.665C17.527 19.9031 15.526 20.6688 14.764 22.3753C14.0021 24.0818 14.7678 26.0829 16.4743 26.8448C18.1808 27.6067 20.1819 26.841 20.9438 25.1345Z" fill="#5E60CE"/>
<path opacity="0.1" d="M20.9438 25.1345C21.7057 23.428 20.94 21.427 19.2335 20.665C17.527 19.9031 15.526 20.6688 14.764 22.3753C14.0021 24.0818 14.7678 26.0829 16.4743 26.8448C18.1808 27.6067 20.1819 26.841 20.9438 25.1345Z" fill="#FAFAFA"/>
<path d="M33.6582 24.1869C33.2864 23.5684 32.7829 23.0393 32.1837 22.6372C31.6164 22.2566 30.9763 21.9987 30.3045 21.8793C30.2346 21.8669 30.1821 21.8163 30.155 21.7506V21.7506C29.7495 20.6659 28.9742 19.7591 27.9656 19.1901C26.957 18.621 25.7799 18.4263 24.6418 18.6402C23.5036 18.8541 22.4775 19.4628 21.7443 20.3592C21.1154 21.1281 20.7365 22.0663 20.6516 23.0484C20.6271 23.3317 20.4269 23.5723 20.1604 23.6715V23.6715C19.6107 23.8805 19.1362 24.2492 18.798 24.7303C18.7941 24.7358 18.7902 24.7413 18.7864 24.7468C18.2204 25.5636 17.4698 26.4164 16.678 27.0169C16.5888 27.0846 16.5028 27.1569 16.4204 27.2338C15.9023 27.7012 15.5323 28.31 15.3558 28.9851C15.1794 29.6602 15.2042 30.3722 15.4273 31.0333C15.5836 31.4754 15.8266 31.8817 16.1421 32.2286C16.4576 32.5754 16.8392 32.8556 17.2645 33.0529C17.6899 33.2502 18.1503 33.3605 18.6189 33.3774C19.0874 33.3943 19.5546 33.3174 19.993 33.1512L26.5077 30.6744L32.4658 28.4103C33.1249 28.165 33.6611 27.6704 33.9587 27.0333C34.2563 26.3961 34.2914 25.6674 34.0563 25.0046L34.0447 24.9779C33.9406 24.7028 33.8113 24.438 33.6582 24.1869Z" fill="#5E60CE"/>
<path opacity="0.3" d="M33.6582 24.1869C33.2864 23.5684 32.7829 23.0393 32.1837 22.6372C31.6164 22.2566 30.9763 21.9987 30.3045 21.8793C30.2346 21.8669 30.1821 21.8163 30.155 21.7506V21.7506C29.7495 20.6659 28.9742 19.7591 27.9656 19.1901C26.957 18.621 25.7799 18.4263 24.6418 18.6402C23.5036 18.8541 22.4775 19.4628 21.7443 20.3592C21.1154 21.1281 20.7365 22.0663 20.6516 23.0484C20.6271 23.3317 20.4269 23.5723 20.1604 23.6715V23.6715C19.6107 23.8805 19.1362 24.2492 18.798 24.7303C18.7941 24.7358 18.7902 24.7413 18.7864 24.7468C18.2204 25.5636 17.4698 26.4164 16.678 27.0169C16.5888 27.0846 16.5028 27.1569 16.4204 27.2338C15.9023 27.7012 15.5323 28.31 15.3558 28.9851C15.1794 29.6602 15.2042 30.3722 15.4273 31.0333C15.5836 31.4754 15.8266 31.8817 16.1421 32.2286C16.4576 32.5754 16.8392 32.8556 17.2645 33.0529C17.6899 33.2502 18.1503 33.3605 18.6189 33.3774C19.0874 33.3943 19.5546 33.3174 19.993 33.1512L26.5077 30.6744L32.4658 28.4103C33.1249 28.165 33.6611 27.6704 33.9587 27.0333C34.2563 26.3961 34.2914 25.6674 34.0563 25.0046L34.0447 24.9779C33.9406 24.7028 33.8113 24.438 33.6582 24.1869Z" fill="black"/>
<g style="mix-blend-mode:multiply">
<path d="M51.0678 15.7301L26.9183 13.3026C25.8192 13.1922 24.8387 13.9935 24.7283 15.0926L22.452 37.7375C22.3416 38.8365 23.1429 39.817 24.242 39.9275L48.3915 42.3549C49.4905 42.4654 50.471 41.664 50.5815 40.565L52.8577 17.9201C52.9682 16.8211 52.1668 15.8406 51.0678 15.7301Z" fill="#5E60CE"/>
</g>
<path opacity="0.8" d="M51.0678 15.7301L26.9183 13.3026C25.8192 13.1922 24.8387 13.9935 24.7283 15.0926L22.452 37.7375C22.3416 38.8365 23.1429 39.817 24.242 39.9275L48.3915 42.3549C49.4905 42.4654 50.471 41.664 50.5815 40.565L52.8577 17.9201C52.9682 16.8211 52.1668 15.8406 51.0678 15.7301Z" fill="#FAFAFA"/>
<path d="M50.7978 15.95L26.6483 13.5225C25.5493 13.412 24.5688 14.2134 24.4583 15.3124L22.1821 37.9573C22.0716 39.0563 22.873 40.0368 23.972 40.1473L48.1215 42.5748C49.2206 42.6853 50.2011 41.8839 50.3115 40.7848L52.5878 18.14C52.6982 17.0409 51.8969 16.0604 50.7978 15.95Z" fill="#FAFAFA"/>
<path d="M48.5577 17.8366L28.4667 15.8171C27.3676 15.7067 26.3871 16.508 26.2767 17.6071L24.8333 31.9663C24.7228 33.0653 25.5242 34.0458 26.6232 34.1563L46.7143 36.1758C47.8133 36.2863 48.7938 35.4849 48.9043 34.3859L50.3476 20.0266C50.4581 18.9276 49.6567 17.9471 48.5577 17.8366Z" fill="#5E60CE"/>
<path opacity="0.8" d="M48.5577 17.8366L28.4667 15.8171C27.3676 15.7067 26.3871 16.508 26.2767 17.6071L24.8333 31.9663C24.7228 33.0653 25.5242 34.0458 26.6232 34.1563L46.7143 36.1758C47.8133 36.2863 48.7938 35.4849 48.9043 34.3859L50.3476 20.0266C50.4581 18.9276 49.6567 17.9471 48.5577 17.8366Z" fill="#FAFAFA"/>
<path d="M48.6493 35.5524C48.7294 35.6503 48.7672 35.7761 48.7544 35.9019V35.9019C48.7279 36.1636 48.4945 36.3542 48.2328 36.328L40.8059 35.5822C39.1441 35.4153 38.5367 33.3059 39.8553 32.2809V32.2809L42.0545 30.5694C42.9114 29.9025 44.144 30.0413 44.8312 30.882L48.6493 35.5524Z" fill="#5E60CE"/>
<path opacity="0.3" d="M48.6493 35.5524C48.7294 35.6503 48.7672 35.7761 48.7544 35.9019V35.9019C48.7279 36.1636 48.4945 36.3542 48.2328 36.328L40.8059 35.5822C39.1441 35.4153 38.5367 33.3059 39.8553 32.2809V32.2809L42.0545 30.5694C42.9114 29.9025 44.144 30.0413 44.8312 30.882L48.6493 35.5524Z" fill="black"/>
<path d="M39.8552 32.2809C41.0273 33.4914 40.0521 35.5057 38.3756 35.3372L25.6593 34.059C25.0945 34.0023 24.6826 33.4986 24.7389 32.9339V32.9339C24.7677 32.6457 24.9166 32.383 25.1492 32.2103L32.2557 26.9341C33.0617 26.3357 34.1863 26.4274 34.8846 27.1485L39.8552 32.2809V32.2809Z" fill="#5E60CE"/>
<path opacity="0.3" d="M39.8552 32.2809C41.0273 33.4914 40.0521 35.5057 38.3756 35.3372L25.6593 34.059C25.0945 34.0023 24.6826 33.4986 24.7389 32.9339V32.9339C24.7677 32.6457 24.9166 32.383 25.1492 32.2103L32.2557 26.9341C33.0617 26.3357 34.1863 26.4274 34.8846 27.1485L39.8552 32.2809V32.2809Z" fill="black"/>
<path d="M43.5696 23.5121C43.9626 21.9803 43.0395 20.42 41.5077 20.027C39.9759 19.634 38.4155 20.5571 38.0225 22.0889C37.6295 23.6207 38.5526 25.1811 40.0844 25.5741C41.6162 25.9671 43.1766 25.0439 43.5696 23.5121Z" fill="#5E60CE"/>
<path opacity="0.1" d="M43.5696 23.5121C43.9626 21.9803 43.0395 20.42 41.5077 20.027C39.9759 19.634 38.4155 20.5571 38.0225 22.0889C37.6295 23.6207 38.5526 25.1811 40.0844 25.5741C41.6162 25.9671 43.1766 25.0439 43.5696 23.5121Z" fill="#FAFAFA"/>
<g style="mix-blend-mode:multiply" opacity="0.8">
<path d="M36.4119 27.1744C36.6762 26.4853 37.4656 26.1227 38.3163 26.3035L55.1163 29.8745C56.1229 30.0885 56.8652 30.9829 56.7717 31.8712L53.6223 57.7613C53.5321 58.6503 52.6411 59.1975 51.6295 58.9825L9.50928 50.0296C8.50105 49.8153 7.7587 48.9209 7.85385 48.0329L10.5807 26.308C10.6709 25.4189 11.5599 24.873 12.5731 25.0884L31.975 29.2124C33.9483 29.6318 35.7932 28.7882 36.4119 27.1744Z" fill="#4EA8DE"/>
</g>
</g>
<path d="M70.748 55.4227H62.2253L71.8275 26.3318H82.623L92.2253 55.4227H83.7025L77.3389 34.3432H77.1116L70.748 55.4227ZM69.1571 43.9455H85.1798V49.8545H69.1571V43.9455ZM95.1407 55.4227V33.6045H102.754V37.7523H102.982C103.379 36.2182 104.009 35.096 104.871 34.3858C105.742 33.6756 106.76 33.3205 107.925 33.3205C108.266 33.3205 108.602 33.3489 108.933 33.4057C109.274 33.453 109.601 33.5241 109.913 33.6188V40.3091C109.525 40.1765 109.047 40.0771 108.479 40.0108C107.911 39.9445 107.423 39.9114 107.016 39.9114C106.249 39.9114 105.557 40.0866 104.942 40.4369C104.336 40.7778 103.858 41.2608 103.507 41.8858C103.157 42.5013 102.982 43.2258 102.982 44.0591V55.4227H95.1407ZM126.394 33.6045V39.2864H112.019V33.6045H126.394ZM114.803 28.3773H122.644V48.4057C122.644 48.7087 122.696 48.9644 122.801 49.1727C122.905 49.3716 123.066 49.5231 123.283 49.6273C123.501 49.722 123.781 49.7693 124.122 49.7693C124.358 49.7693 124.633 49.7409 124.945 49.6841C125.267 49.6273 125.504 49.5799 125.656 49.542L126.792 55.0534C126.442 55.1576 125.94 55.2854 125.286 55.4369C124.642 55.5884 123.875 55.6879 122.985 55.7352C121.186 55.8299 119.676 55.6453 118.454 55.1813C117.232 54.7078 116.314 53.9644 115.698 52.9511C115.083 51.9379 114.784 50.6689 114.803 49.1443V28.3773Z" fill="#4EA8DE"/>
<path d="M129.594 55.4227V33.6045H137.435V55.4227H129.594ZM133.514 31.3318C132.454 31.3318 131.545 30.9814 130.787 30.2807C130.029 29.5799 129.651 28.7371 129.651 27.7523C129.651 26.7674 130.029 25.9246 130.787 25.2239C131.545 24.5231 132.454 24.1727 133.514 24.1727C134.584 24.1727 135.493 24.5231 136.242 25.2239C136.999 25.9246 137.378 26.7674 137.378 27.7523C137.378 28.7371 136.999 29.5799 136.242 30.2807C135.493 30.9814 134.584 31.3318 133.514 31.3318ZM141.316 55.4227V26.3318H161.771V32.6955H149.214V37.6955H160.521V44.0591H149.214V55.4227H141.316ZM168.195 63.6045C167.295 63.6045 166.438 63.5335 165.624 63.3915C164.809 63.2589 164.094 63.0742 163.479 62.8375L165.183 57.2693C165.827 57.4966 166.414 57.6434 166.945 57.7097C167.484 57.7759 167.944 57.7381 168.323 57.596C168.711 57.454 168.99 57.1841 169.161 56.7864L169.331 56.3886L161.661 33.6045H169.842L173.365 48.7182H173.592L177.172 33.6045H185.411L177.456 57.2409C177.058 58.4436 176.481 59.5231 175.723 60.4795C174.975 61.4455 173.99 62.2078 172.769 62.7665C171.547 63.3252 170.022 63.6045 168.195 63.6045Z" fill="#5E60CE"/>
<defs>
<filter id="filter0_d_1_4" x="2.87122" y="5.45398" width="66.4671" height="61.7147" filterUnits="userSpaceOnUse" color-interpolation-filters="sRGB">
<feFlood flood-opacity="0" result="BackgroundImageFix"/>
<feColorMatrix in="SourceAlpha" type="matrix" values="0 0 0 0 0 0 0 0 0 0 0 0 0 0 0 0 0 0 127 0" result="hardAlpha"/>
<feOffset dy="4"/>
<feGaussianBlur stdDeviation="2"/>
<feComposite in2="hardAlpha" operator="out"/>
<feColorMatrix type="matrix" values="0 0 0 0 0 0 0 0 0 0 0 0 0 0 0 0 0 0 0.25 0"/>
<feBlend mode="normal" in2="BackgroundImageFix" result="effect1_dropShadow_1_4"/>
<feBlend mode="normal" in="SourceGraphic" in2="effect1_dropShadow_1_4" result="shape"/>
</filter>
</defs>
</svg>
